<svg xmlns="http://www.w3.org/2000/svg" viewBox="0 0 200 200">
  <defs>
    <linearGradient id="bg" x1="0%" y1="0%" x2="100%" y2="100%">
      <stop offset="0%" style="stop-color:#3B82F6;stop-opacity:1" />
      <stop offset="100%" style="stop-color:#1E40AF;stop-opacity:1" />
    </linearGradient>
    <linearGradient id="lotus" x1="0%" y1="0%" x2="100%" y2="100%">
      <stop offset="0%" style="stop-color:#F472B6;stop-opacity:1" />
      <stop offset="100%" style="stop-color:#EC4899;stop-opacity:1" />
    </linearGradient>
  </defs>
  
  <!-- Background -->
  <rect width="200" height="200" fill="url(#bg)" rx="20"/>
  
  <!-- Lotus Base -->
  <ellipse cx="100" cy="150" rx="30" ry="12" fill="url(#lotus)"/>
  <ellipse cx="85" cy="145" rx="18" ry="8" fill="#F9A8D4"/>
  <ellipse cx="115" cy="145" rx="18" ry="8" fill="#F9A8D4"/>
  <ellipse cx="100" cy="135" rx="20" ry="8" fill="#FBCFE8"/>
  
  <!-- Veena (Musical Instrument) -->
  <ellipse cx="100" cy="100" rx="35" ry="15" fill="#D97706"/>
  <ellipse cx="100" cy="98" rx="30" ry="12" fill="#F59E0B"/>
  
  <!-- Veena Strings -->
  <line x1="75" y1="100" x2="125" y2="100" stroke="#92400E" stroke-width="1"/>
  <line x1="75" y1="103" x2="125" y2="103" stroke="#92400E" stroke-width="1"/>
  <line x1="75" y1="106" x2="125" y2="106" stroke="#92400E" stroke-width="1"/>
  <line x1="75" y1="109" x2="125" y2="109" stroke="#92400E" stroke-width="1"/>
  
  <!-- Veena Neck -->
  <rect x="125" y="95" width="20" height="10" fill="#92400E" rx="2"/>
  <circle cx="148" cy="100" r="4" fill="#451A03"/>
  
  <!-- Books (Knowledge) -->
  <rect x="60" y="80" width="15" height="20" fill="#DC2626" rx="2"/>
  <rect x="62" y="82" width="11" height="16" fill="#EF4444"/>
  <line x1="67" y1="85" x2="67" y2="95" stroke="#DC2626" stroke-width="1"/>
  
  <rect x="125" y="75" width="15" height="20" fill="#059669" rx="2"/>
  <rect x="127" y="77" width="11" height="16" fill="#10B981"/>
  <line x1="132" y1="80" x2="132" y2="90" stroke="#059669" stroke-width="1"/>
  
  <!-- Swan (Saraswati's Vehicle) -->
  <ellipse cx="100" cy="60" rx="20" ry="8" fill="white"/>
  <ellipse cx="110" cy="55" rx="8" ry="6" fill="white"/>
  <path d="M 118 55 Q 125 52 128 55" stroke="#F59E0B" stroke-width="2" fill="none"/>
  <circle cx="115" cy="53" r="1.5" fill="#1F2937"/>
  
  <!-- Swan Wings -->
  <ellipse cx="95" cy="58" rx="12" ry="5" fill="#F3F4F6"/>
  <ellipse cx="105" cy="62" rx="10" ry="4" fill="#F3F4F6"/>
  
  <!-- Lotus Flowers -->
  <circle cx="50" cy="40" r="8" fill="#F472B6"/>
  <circle cx="45" cy="35" r="4" fill="#EC4899"/>
  <circle cx="55" cy="35" r="4" fill="#EC4899"/>
  <circle cx="45" cy="45" r="4" fill="#EC4899"/>
  <circle cx="55" cy="45" r="4" fill="#EC4899"/>
  
  <circle cx="150" cy="45" r="6" fill="#F472B6"/>
  <circle cx="147" cy="42" r="3" fill="#EC4899"/>
  <circle cx="153" cy="42" r="3" fill="#EC4899"/>
  <circle cx="147" cy="48" r="3" fill="#EC4899"/>
  <circle cx="153" cy="48" r="3" fill="#EC4899"/>
  
  <!-- Knowledge Symbols -->
  <text x="40" y="120" fill="#FCD34D" font-family="Arial, sans-serif" font-size="16" font-weight="bold">ॐ</text>
  <text x="160" y="125" fill="#FCD34D" font-family="Arial, sans-serif" font-size="14">📚</text>
  
  <!-- Text -->
  <text x="100" y="180" text-anchor="middle" fill="white" font-family="Arial, sans-serif" font-size="12" font-weight="bold">Saraswati</text>
  <text x="100" y="195" text-anchor="middle" fill="#DBEAFE" font-family="Arial, sans-serif" font-size="10">Puja</text>
</svg>