<svg xmlns="http://www.w3.org/2000/svg" viewBox="0 0 200 200">
  <defs>
    <linearGradient id="bg" x1="0%" y1="0%" x2="100%" y2="100%">
      <stop offset="0%" style="stop-color:#F59E0B;stop-opacity:1" />
      <stop offset="100%" style="stop-color:#D97706;stop-opacity:1" />
    </linearGradient>
    <linearGradient id="yomari" x1="0%" y1="0%" x2="100%" y2="100%">
      <stop offset="0%" style="stop-color:#FEF3C7;stop-opacity:1" />
      <stop offset="100%" style="stop-color:#FCD34D;stop-opacity:1" />
    </linearGradient>
  </defs>
  
  <!-- Background -->
  <rect width="200" height="200" fill="url(#bg)" rx="20"/>
  
  <!-- Steamer -->
  <ellipse cx="100" cy="160" rx="40" ry="15" fill="#92400E"/>
  <ellipse cx="100" cy="155" rx="38" ry="12" fill="#D97706"/>
  <rect x="62" y="145" width="76" height="15" fill="#92400E"/>
  
  <!-- Steam -->
  <path d="M 80 140 Q 82 130 80 125 Q 78 120 80 115" 
        stroke="#E5E7EB" stroke-width="2" fill="none" opacity="0.7"/>
  <path d="M 100 140 Q 102 130 100 125 Q 98 120 100 115" 
        stroke="#E5E7EB" stroke-width="2" fill="none" opacity="0.7"/>
  <path d="M 120 140 Q 122 130 120 125 Q 118 120 120 115" 
        stroke="#E5E7EB" stroke-width="2" fill="none" opacity="0.7"/>
  
  <!-- Yomari Dumplings -->
  <path d="M 100 120 L 85 135 Q 100 145 115 135 Z" fill="url(#yomari)"/>
  <path d="M 100 120 L 90 130 Q 100 135 110 130 Z" fill="#FEF3C7"/>
  
  <path d="M 70 110 L 60 120 Q 70 128 80 120 Z" fill="url(#yomari)"/>
  <path d="M 70 110 L 65 115 Q 70 120 75 115 Z" fill="#FEF3C7"/>
  
  <path d="M 130 110 L 120 120 Q 130 128 140 120 Z" fill="url(#yomari)"/>
  <path d="M 130 110 L 125 115 Q 130 120 135 115 Z" fill="#FEF3C7"/>
  
  <!-- Sesame Seeds -->
  <circle cx="95" cy="125" r="1" fill="#92400E"/>
  <circle cx="105" cy="128" r="1" fill="#92400E"/>
  <circle cx="100" cy="132" r="1" fill="#92400E"/>
  
  <circle cx="68" cy="118" r="0.8" fill="#92400E"/>
  <circle cx="72" cy="120" r="0.8" fill="#92400E"/>
  
  <circle cx="132" cy="118" r="0.8" fill="#92400E"/>
  <circle cx="128" cy="120" r="0.8" fill="#92400E"/>
  
  <!-- Full Moon -->
  <circle cx="100" cy="50" r="25" fill="#FEF3C7"/>
  <circle cx="100" cy="50" r="20" fill="#FCD34D"/>
  <circle cx="95" cy="45" r="3" fill="#F59E0B" opacity="0.5"/>
  <circle cx="108" cy="52" r="2" fill="#F59E0B" opacity="0.5"/>
  <circle cx="98" cy="58" r="2.5" fill="#F59E0B" opacity="0.5"/>
  
  <!-- Harvest Elements -->
  <path d="M 40 90 Q 45 85 50 90 Q 55 95 60 90" 
        stroke="#10B981" stroke-width="3" fill="none"/>
  <circle cx="45" cy="88" r="2" fill="#FCD34D"/>
  <circle cx="55" cy="92" r="2" fill="#FCD34D"/>
  
  <path d="M 140 95 Q 145 90 150 95 Q 155 100 160 95" 
        stroke="#10B981" stroke-width="3" fill="none"/>
  <circle cx="145" cy="93" r="2" fill="#FCD34D"/>
  <circle cx="155" cy="97" r="2" fill="#FCD34D"/>
  
  <!-- Newari Symbols -->
  <circle cx="50" cy="50" r="8" fill="#DC2626"/>
  <path d="M 46 46 L 54 54 M 54 46 L 46 54" stroke="white" stroke-width="2"/>
  
  <circle cx="150" cy="55" r="6" fill="#059669"/>
  <circle cx="150" cy="55" r="3" fill="white"/>
  
  <!-- Text -->
  <text x="100" y="185" text-anchor="middle" fill="white" font-family="Arial, sans-serif" font-size="12" font-weight="bold">Yomari</text>
  <text x="100" y="200" text-anchor="middle" fill="#FEF3C7" font-family="Arial, sans-serif" font-size="10">Punhi</text>
</svg>